<svg id="Capa_1" enable-background="new 0 0 512 512" height="512" viewBox="0 0 512 512" width="512" xmlns="http://www.w3.org/2000/svg"><g><path d="m46.383 0v67.721h-26.383v29.942h26.383v56.712h-26.383v29.942h26.383v56.712h-26.383v29.942h26.383v56.712h-26.383v29.942h26.383v56.712h-26.383v29.942h26.383v67.721h445.617v-512zm415.617 482.058h-385.617v-37.78h26.382v-29.942h-26.382v-56.712h26.382v-29.942h-26.382v-56.712h26.382v-29.942h-26.382v-56.712h26.382v-29.942h-26.382v-56.711h26.382v-29.942h-26.382v-37.78h385.617z"/><path d="m309.204 116.808h97.284v29.942h-97.284z"/><path d="m309.204 241.115h97.284v29.942h-97.284z"/><path d="m309.204 375.231h97.284v29.942h-97.284z"/><path d="m263.221 103.816-21.213-21.172-48.518 48.424-22.456-22.412-21.214 21.171 43.67 43.584z"/><path d="m263.221 229.962-21.213-21.172-48.518 48.424-22.456-22.412-21.214 21.172 43.67 43.583z"/><path d="m263.221 356.108-21.213-21.171-48.518 48.423-22.457-22.412-21.213 21.172 43.67 43.583z"/></g></svg>